<svg width="36" height="35" viewBox="0 0 36 35" fill="none" xmlns="http://www.w3.org/2000/svg">
<path d="M29.5734 0H6.36157C3.05474 0 0.374023 2.66647 0.374023 5.95573V29.0443C0.374023 32.3335 3.05474 35 6.36157 35H29.5734C32.8802 35 35.561 32.3335 35.561 29.0443V5.95573C35.561 2.66647 32.8802 0 29.5734 0Z" fill="#2D2D2D"/>
<path d="M7.54588 8.72805L16.0552 18.3327C16.5388 18.8799 17.2365 19.1909 17.9691 19.1909C18.7016 19.1909 19.3965 18.877 19.8829 18.3327L28.2446 8.89508C28.3141 8.81733 28.3951 8.75685 28.482 8.70789C28.1288 8.55237 27.7379 8.46597 27.3239 8.46597H8.61426C8.22049 8.46597 7.84409 8.54373 7.50244 8.68773C7.51692 8.70213 7.5314 8.71365 7.54588 8.72805Z" fill="white"/>
<path d="M29.7703 9.81381C29.7327 9.91173 29.6806 10.0039 29.6082 10.0874L21.2465 19.525C20.4184 20.461 19.2256 20.9966 17.9719 20.9966C16.7182 20.9966 15.5253 20.461 14.6973 19.525L6.1879 9.92037C6.17052 9.90021 6.15894 9.88005 6.14447 9.85989C5.88099 10.2919 5.72754 10.7988 5.72754 11.3402V24.3403C5.72754 25.9271 7.02175 27.2145 8.61707 27.2145H27.3267C28.922 27.2145 30.2162 25.9271 30.2162 24.3403V11.3402C30.2162 10.7786 30.0512 10.2544 29.7703 9.81381Z" fill="white"/>
</svg>
