<svg width="79" height="73" viewBox="0 0 79 73" fill="none" xmlns="http://www.w3.org/2000/svg">
<path d="M34.7233 28.8144L22.0303 40.0364C15.8142 33.5815 15.8142 24.0472 22.0303 17.5923L34.7233 28.8144Z" stroke="#2D2D2D" stroke-width="3"/>
<path d="M42.2767 28.8144L54.9697 17.5923C61.1858 24.0472 61.1858 33.5815 54.9697 40.0364L42.2767 28.8144Z" stroke="#2D2D2D" stroke-width="3"/>
<rect x="2.24755" width="17.0024" height="17.0024" transform="matrix(0.749182 -0.662364 0.749182 0.662364 24.0784 44.9039)" fill="#FFC700" stroke="#2D2D2D" stroke-width="3"/>
<rect x="-2.24755" y="-1.78814e-07" width="17.0024" height="17.0024" transform="matrix(-0.749182 0.662364 -0.749182 -0.662364 49.554 15.7023)" fill="#FFC700" stroke="#2D2D2D" stroke-width="3"/>
<path d="M8 70L6.306 67.382L4.654 70H0.888L4.43 65.058L1.014 60.2H4.724L6.39 62.664L8.014 60.2H11.57L8.168 64.932L11.78 70H8ZM11.9386 64.764H16.1386V67.144H11.9386V64.764ZM21.079 70.224C20.267 70.224 19.4736 70.1353 18.699 69.958C17.9336 69.7713 17.3036 69.524 16.809 69.216L17.873 66.808C18.3396 67.0787 18.8623 67.298 19.441 67.466C20.0196 67.6247 20.575 67.704 21.107 67.704C21.5643 67.704 21.891 67.662 22.087 67.578C22.283 67.4847 22.381 67.3493 22.381 67.172C22.381 66.9667 22.2503 66.8127 21.989 66.71C21.737 66.6073 21.317 66.4953 20.729 66.374C19.973 66.2153 19.343 66.0473 18.839 65.87C18.335 65.6833 17.8963 65.3847 17.523 64.974C17.1496 64.554 16.963 63.9893 16.963 63.28C16.963 62.664 17.1356 62.104 17.481 61.6C17.8263 61.096 18.3396 60.6993 19.021 60.41C19.7116 60.1207 20.547 59.976 21.527 59.976C22.199 59.976 22.857 60.0507 23.501 60.2C24.1543 60.34 24.7283 60.55 25.223 60.83L24.229 63.224C23.2676 62.7387 22.3576 62.496 21.499 62.496C20.6496 62.496 20.225 62.7013 20.225 63.112C20.225 63.308 20.351 63.4573 20.603 63.56C20.855 63.6533 21.2703 63.756 21.849 63.868C22.5956 64.008 23.2256 64.1713 23.739 64.358C24.2523 64.5353 24.6956 64.8293 25.069 65.24C25.4516 65.6507 25.643 66.2107 25.643 66.92C25.643 67.536 25.4703 68.096 25.125 68.6C24.7796 69.0947 24.2616 69.4913 23.571 69.79C22.8896 70.0793 22.059 70.224 21.079 70.224ZM33.3041 68.292H29.5801L28.9221 70H25.5621L29.8461 60.2H33.0941L37.3781 70H33.9621L33.3041 68.292ZM32.3941 65.912L31.4421 63.448L30.4901 65.912H32.3941ZM46.6554 70L46.6274 65.534L44.4994 69.118H43.0434L40.9154 65.688V70H37.9054V60.2H40.6214L43.8134 65.422L46.9214 60.2H49.6374L49.6654 70H46.6554ZM55.9808 60.2C56.8862 60.2 57.6748 60.3493 58.3468 60.648C59.0188 60.9467 59.5368 61.376 59.9008 61.936C60.2648 62.496 60.4468 63.1493 60.4468 63.896C60.4468 64.6427 60.2648 65.296 59.9008 65.856C59.5368 66.416 59.0188 66.8453 58.3468 67.144C57.6748 67.4427 56.8862 67.592 55.9808 67.592H54.5668V70H51.2628V60.2H55.9808ZM55.7708 65.044C56.2188 65.044 56.5548 64.946 56.7788 64.75C57.0028 64.5447 57.1148 64.26 57.1148 63.896C57.1148 63.532 57.0028 63.252 56.7788 63.056C56.5548 62.8507 56.2188 62.748 55.7708 62.748H54.5668V65.044H55.7708ZM61.5304 60.2H64.8344V67.438H69.2584V70H61.5304V60.2ZM78.319 67.508V70H70.171V60.2H78.137V62.692H73.419V63.84H77.563V66.22H73.419V67.508H78.319Z" fill="#1E1E1E"/>
</svg>
