<svg width="36" height="35" viewBox="0 0 36 35" fill="none" xmlns="http://www.w3.org/2000/svg">
<path d="M29.1994 0H5.98754C2.68071 0 0 2.66647 0 5.95573V29.0443C0 32.3335 2.68071 35 5.98754 35H29.1994C32.5062 35 35.1869 32.3335 35.1869 29.0443V5.95573C35.1869 2.66647 32.5062 0 29.1994 0Z" fill="#2D2D2D"/>
<path d="M27.7634 17.9995C27.2509 17.9908 27.2451 17.5819 27.2393 17.1499C27.2393 17.0721 27.2393 16.9944 27.2335 16.9195C27.2335 16.8763 27.2277 16.836 27.2219 16.7928C26.5213 11.39 24.04 8.43227 18.4954 8.02332C18.1509 7.9974 17.4154 7.911 17.4357 7.53085C17.4647 7.03837 17.7571 6.93182 18.0611 6.93182C18.1451 6.93182 18.507 6.9203 18.7299 6.93182C25.1112 7.33789 27.9052 11.4073 28.2874 16.836C28.2932 16.9195 28.3511 17.7115 28.1629 17.8699C28.0732 17.9447 27.9573 17.9966 27.7865 17.9966H27.7662L27.7634 17.9995Z" fill="white"/>
<path d="M25.0388 16.9886C24.6769 16.9886 24.5871 16.7697 24.5553 16.3896C24.5524 16.3406 24.5466 16.2888 24.5437 16.2398C24.5379 16.1333 24.5292 16.0267 24.5147 15.9317C23.9588 12.6514 22.7544 11.4274 19.3668 10.6902C19.2713 10.67 19.1642 10.6556 19.057 10.6412C18.7675 10.6038 18.4664 10.5606 18.3332 10.382C18.2608 10.2841 18.2406 10.1545 18.2724 9.97882C18.3274 9.6649 18.4925 9.50075 18.8254 9.52955C23.0323 9.8953 25.4065 12.1157 25.5831 16.5941C25.5918 16.8331 25.4355 16.9454 25.2009 16.98C25.143 16.9886 25.088 16.9915 25.0388 16.9915V16.9886Z" fill="white"/>
<path d="M22.4911 16.1937C22.355 16.1937 22.2363 16.1361 22.1437 16.0325C22.0539 15.9288 21.9931 15.7819 21.9757 15.6235C21.8339 14.2411 21.0608 13.4319 19.6768 13.213C19.4423 13.1784 19.1904 13.118 19.092 12.9538C19.0312 12.853 19.0312 12.7205 19.092 12.5477C19.2078 12.2194 19.5234 12.1589 19.8621 12.1762C20.5107 12.205 21.3793 12.5621 22.0192 13.2072C22.6619 13.8552 23.0383 14.653 23.0267 15.3413C23.0383 15.6178 23.021 15.9518 22.7951 16.1045C22.7256 16.1505 22.6417 16.1793 22.5461 16.1909C22.5258 16.1909 22.5056 16.1937 22.4882 16.1937H22.4911Z" fill="white"/>
<path d="M24.2745 28.6553C23.5304 28.6553 22.7574 28.2809 22.077 27.9497C21.9525 27.8892 21.8309 27.8316 21.7151 27.7769C20.7451 27.3247 19.8012 26.8294 18.9124 26.3023C15.354 24.2057 12.2821 21.3892 10.0295 18.1492C9.40701 17.2535 8.82504 16.3003 8.30099 15.3182L8.22861 15.1857C7.69297 14.1864 7.13996 13.1496 6.84464 12.0754C6.38139 10.3878 7.02994 8.7865 8.53841 7.89084C9.24487 7.47037 9.87315 7.26013 10.4001 7.26013C10.6896 7.26013 10.956 7.32349 11.1847 7.45309C11.6914 7.73244 12.1199 8.21339 12.4963 8.63675C13.3591 9.60729 14.4014 10.886 14.885 12.2309C15.1224 12.8904 14.8734 13.5615 14.2046 14.0741C14.1206 14.1374 14.0337 14.2008 13.9469 14.2613C13.6168 14.4974 13.2781 14.7394 13.0667 15.1281C12.864 15.5054 12.8148 15.9633 12.9306 16.4558C13.1217 17.2823 13.611 18.1809 14.4275 19.2004C15.0239 19.9463 15.7478 20.6144 16.5729 21.1847C17.3778 21.7405 18.313 22.3453 19.2453 22.5095C19.3554 22.5296 19.4654 22.5383 19.5696 22.5383C19.9402 22.5383 20.2819 22.4231 20.554 22.2042C20.7683 22.0343 20.9304 21.8154 21.0897 21.6052C21.2286 21.4208 21.3705 21.2308 21.5442 21.0781C21.9293 20.7354 22.381 20.5597 22.8848 20.5597C23.2033 20.5597 23.5333 20.6317 23.8663 20.7728C24.3064 20.96 24.7088 21.2394 25.0968 21.5101L25.3342 21.6743C25.7946 21.9882 26.3273 22.3539 26.8253 22.7456L27.1033 22.9645V22.9587C27.1206 22.9702 27.1351 22.9818 27.1525 22.9933C27.8213 23.4915 28.5133 24.007 28.4901 24.8653C28.4612 25.8963 27.6215 26.8351 27.1206 27.3046C26.3302 28.0476 25.4182 28.5199 24.5554 28.6409C24.4627 28.6524 24.3672 28.661 24.2716 28.661L24.2745 28.6553Z" fill="white"/>
</svg>
