<svg width="36" height="35" viewBox="0 0 36 35" fill="none" xmlns="http://www.w3.org/2000/svg">
<path d="M29.3864 0H6.17455C2.86772 0 0.187012 2.66647 0.187012 5.95573V29.0443C0.187012 32.3335 2.86772 35 6.17455 35H29.3864C32.6932 35 35.374 32.3335 35.374 29.0443V5.95573C35.374 2.66647 32.6932 0 29.3864 0Z" fill="#2D2D2D"/>
<path fill-rule="evenodd" clip-rule="evenodd" d="M18.0048 27.2273C16.6527 27.2273 15.3035 26.9566 14.0585 26.4295C13.7487 26.2999 13.4447 26.1531 13.1522 25.9918C13.0191 25.9198 12.8859 25.8449 12.7556 25.7643C12.7093 25.7383 12.4863 25.5598 12.4429 25.5713C12.2894 25.6203 12.136 25.6692 11.9825 25.7182C10.8447 26.0782 9.7097 26.4353 8.57183 26.7953C8.98297 25.5713 9.3941 24.3502 9.80814 23.1262C9.84867 23.0024 9.63152 22.8152 9.56493 22.7144C9.34778 22.389 9.148 22.052 8.97139 21.7035C8.62395 21.0239 8.35758 20.3039 8.17517 19.5609C7.81615 18.0834 7.81615 16.5455 8.14911 15.0624C8.69054 12.6547 10.1556 10.5005 12.1823 9.08072C14.2698 7.61771 16.8814 6.99564 19.4091 7.34123C21.8788 7.68107 24.1719 8.94537 25.7759 10.8404C27.4407 12.8074 28.2717 15.3475 28.0921 17.9106C27.9242 20.3557 26.8211 22.6827 25.0492 24.3876C23.2656 26.1012 20.8741 27.1178 18.3928 27.2129C18.2625 27.2186 18.1351 27.2215 18.0048 27.2215V27.2273ZM23.5204 19.6386C23.118 19.4514 22.7242 19.2527 22.3246 19.0597C22.0004 18.9042 21.5197 18.573 21.1405 18.6162C20.9001 18.645 20.7699 18.9417 20.6338 19.1116C20.4485 19.3449 20.2545 19.5724 20.0576 19.7941C19.9099 19.964 19.7565 20.1772 19.5017 20.1282C19.3164 20.0936 19.1166 19.9784 18.94 19.9036C17.6661 19.3564 16.5832 18.455 15.758 17.3519C15.5264 17.0438 14.9792 16.4678 15.2919 16.0819C15.6538 15.6355 16.3661 15.1257 16.0881 14.4835C15.9173 14.0861 15.758 13.6858 15.5901 13.2854C15.4888 13.0435 15.3903 12.8045 15.289 12.5626C15.1906 12.3293 15.1037 12.0183 14.8692 11.8829C14.7215 11.7965 14.5102 11.8426 14.348 11.834C14.0035 11.8167 13.6821 11.7908 13.3839 12.001C13.0596 12.2285 12.7614 12.6029 12.5616 12.9399C11.444 14.8262 12.7179 16.8422 13.8732 18.3657C14.5188 19.2153 15.26 20.0015 16.0939 20.6668C17.2028 21.548 18.4594 22.0866 19.7999 22.5157C20.35 22.6914 20.9899 22.9189 21.5748 22.7979C21.7485 22.7634 21.9309 22.7461 22.1017 22.7029C22.6489 22.5675 23.2019 22.2334 23.587 21.8274C23.9373 21.4587 24.0647 20.9432 24.1082 20.4479C24.1198 20.3039 24.14 20.1196 24.0792 19.9813C24.001 19.8028 23.671 19.7106 23.5117 19.6328L23.5204 19.6386ZM30.0233 16.9459C29.8959 11.9607 26.5113 7.49963 21.7514 5.96462C16.9104 4.40081 11.444 6.08846 8.37784 10.1348C6.87517 12.1162 6.01815 14.5785 5.9863 17.0639C5.96604 18.6537 6.26715 20.2405 6.87227 21.7151C7.01414 22.0606 7.17339 22.3976 7.34421 22.7288C7.40212 22.8382 7.73798 23.2875 7.70324 23.3883C7.65401 23.5352 7.6019 23.6821 7.55268 23.8261C6.87807 25.7988 6.20635 27.7687 5.53174 29.7386C6.7304 29.3613 7.92907 28.984 9.12774 28.6039C9.89789 28.362 10.6652 28.1201 11.4353 27.8753C11.6496 27.809 11.8638 27.7399 12.0781 27.6737C12.1157 27.6621 12.1534 27.6506 12.191 27.6391C12.2286 27.6276 12.4052 27.7485 12.4429 27.7687C12.6369 27.8695 12.8367 27.9645 13.0335 28.0538C18.0135 30.2771 24.0503 28.8314 27.4494 24.5921C28.2803 23.5553 28.9347 22.3803 29.3748 21.1275C29.8554 19.7596 30.0175 18.383 30.0175 16.9459H30.0233Z" fill="white"/>
</svg>
